<svg version="1.1" xmlns="http://www.w3.org/2000/svg" xmlns:xlink="http://www.w3.org/1999/xlink" x="0px" y="0px"
	 viewBox="0 0 24 24" style="enable-background:new 0 0 24 24;" xml:space="preserve">
<style type="text/css">
	.st0{fill:#FFFFFF;}
</style>
<g id="Layer_2">
</g>
<g id="Layer_1">
	<title>logo-steam-fixed</title>
	<path class="st0" d="M15.9,5.9c-1.6,0.1-3,1.5-2.9,3.1c0.1,1.7,1.4,3,3.1,2.9c1.6,0,2.9-1.4,2.9-3C18.9,7.2,17.5,5.9,15.9,5.9z
		 M16,11.2c-1.2,0-2.3-1-2.3-2.3s1-2.3,2.3-2.3s2.3,1,2.3,2.3S17.2,11.2,16,11.2z"/>
	<path class="st0" d="M12,0C5.8,0,0.6,4.8,0,11l6.4,2.7c0.6-0.4,1.3-0.6,2-0.6h0.1l2.9-4.2l0,0c0-2.5,2-4.5,4.5-4.5
		c2.5,0,4.5,2,4.6,4.5c-0.1,2.5-2.1,4.5-4.6,4.5h-0.1l-4.1,2.9v0.2c0,1.8-1.5,3.3-3.3,3.4c-1.6,0-3-1.1-3.4-2.7l-4.6-1.9
		c1.8,6.4,8.5,10.1,14.8,8.2c6.4-1.8,10.1-8.5,8.2-14.8C22,3.6,17.3,0,12,0z"/>
	<path class="st0" d="M7.5,18.2l-1.4-0.6c0.2,0.6,0.7,1,1.3,1.2c1.2,0.6,2.6,0.1,3.2-1.1c0-0.1,0.1-0.1,0.1-0.2c0.3-0.6,0.3-1.4,0-2
		c-0.2-0.6-0.7-1.1-1.3-1.4c-0.6-0.2-1.3-0.2-1.9,0L9,14.7c1,0.4,1.4,1.5,1,2.5S8.5,18.6,7.5,18.2C7.5,18.2,7.5,18.2,7.5,18.2z"/>
</g>
</svg>